<svg xmlns="http://www.w3.org/2000/svg" xmlns:svg="http://www.w3.org/2000/svg" xmlns:xlink="http://www.w3.org/1999/xlink" id="svg2" width="1024" height="1024" version="1.1" viewBox="0 0 1024 1024"><defs id="defs4"><linearGradient id="linearGradient3338"><stop style="stop-color:#fea;stop-opacity:1" id="stop3340" offset="0"/><stop style="stop-color:#191817;stop-opacity:1" id="stop3342" offset="1"/></linearGradient><linearGradient id="linearGradient3344" x1="478.812" x2="478.812" y1="-64.867" y2="1167.52" gradientUnits="userSpaceOnUse" xlink:href="#linearGradient3338"/><filter style="color-interpolation-filters:sRGB" id="filter4157"><feTurbulence id="feTurbulence4159" baseFrequency="1" numOctaves="3" result="result0" seed="0" type="fractalNoise"/><feColorMatrix id="feColorMatrix4161" result="result4" type="saturate" values="0"/><feComposite id="feComposite4163" in="SourceGraphic" in2="result4" k1=".5" k2=".25" k3=".25" operator="arithmetic" result="result2"/><feBlend id="feBlend4165" in="result2" in2="SourceGraphic" mode="normal" result="result5"/><feComposite id="feComposite4167" in="result5" in2="SourceGraphic" operator="in" result="result3"/></filter><clipPath id="clipPath4158" clipPathUnits="userSpaceOnUse"><rect style="fill:#ff9a00;fill-opacity:1;stroke:none;stroke-width:9;stroke-linecap:round;stroke-linejoin:round;stroke-miterlimit:4;stroke-dasharray:none;stroke-opacity:1" id="rect4160" width="941.044" height="549.396" x="38.077" y="412.307"/></clipPath><clipPath id="clipPath4158-7" clipPathUnits="userSpaceOnUse"><rect id="rect4160-6" width="941.044" height="549.396" x="38.077" y="412.307" style="fill:#ff9a00;fill-opacity:1;stroke:none;stroke-width:9;stroke-linecap:round;stroke-linejoin:round;stroke-miterlimit:4;stroke-dasharray:none;stroke-opacity:1"/></clipPath><clipPath id="clipPath4195" clipPathUnits="userSpaceOnUse"><rect id="rect4197" width="745.172" height="540.999" x="139.414" y="178.035" rx="200" ry="200" style="opacity:1;fill:none;fill-opacity:1;stroke:#000;stroke-width:17.38746834;stroke-linecap:round;stroke-linejoin:miter;stroke-miterlimit:4;stroke-dasharray:none;stroke-opacity:1"/></clipPath><filter style="color-interpolation-filters:sRGB" id="filter4443"><feFlood id="feFlood4445" flood-color="#000" flood-opacity=".498" result="flood"/><feComposite id="feComposite4447" in="flood" in2="SourceGraphic" operator="in" result="composite1"/><feGaussianBlur id="feGaussianBlur4449" in="composite1" result="blur" stdDeviation="3"/><feOffset id="feOffset4451" dx="6" dy="6" result="offset"/><feComposite id="feComposite4453" in="SourceGraphic" in2="offset" operator="over" result="composite2"/></filter></defs><metadata id="metadata7"/><g id="layer1" transform="translate(0,-28.362161)"><rect style="fill:url(#linearGradient3344);fill-rule:evenodd;stroke:none;stroke-width:1px;stroke-linecap:butt;stroke-linejoin:miter;stroke-opacity:1;fill-opacity:1;filter:url(#filter4157)" id="rect3336" width="1100" height="1100" x="-38" y="-9.638"/><g id="g4504" transform="matrix(1.1278306,0,0,1.1278306,-67.923077,-18.587454)"><path style="fill:#f2f2f2;fill-opacity:1;fill-rule:evenodd;stroke:#f2f2f2;stroke-width:25.13800049;stroke-linecap:butt;stroke-linejoin:round;stroke-miterlimit:4;stroke-dasharray:none;stroke-opacity:1;filter:url(#filter4443)" id="path4498" d="M 164.74366,398.74763 217.97653,812.78108 850.85622,712.2301 752.27683,315.94094 Z" transform="matrix(0.95827801,0,0,0.95711658,23.470163,54.325466)"/><path id="path4496" d="M 164.74366,398.74763 217.97653,812.78108 850.85622,712.2301 752.27683,315.94094 Z" transform="matrix(0.96785979,0,0,0.96785979,18.604534,40.476343)" style="fill:#f2f2f2;fill-opacity:1;fill-rule:evenodd;stroke:#f2f2f2;stroke-width:25.13800049;stroke-linecap:butt;stroke-linejoin:round;stroke-miterlimit:4;stroke-dasharray:none;stroke-opacity:1;filter:url(#filter4443)"/><path style="fill:#f2f2f2;fill-opacity:1;fill-rule:evenodd;stroke:#f2f2f2;stroke-width:25.13800049;stroke-linecap:butt;stroke-linejoin:round;stroke-miterlimit:4;stroke-dasharray:none;stroke-opacity:1;filter:url(#filter4443)" id="path4494" d="M 164.74366,398.74763 217.97653,812.78108 850.85622,712.2301 752.27683,315.94094 Z" transform="matrix(0.97763615,0,0,0.97763615,13.640098,27.054903)"/><path id="path4492" d="M 164.74366,398.74763 217.97653,812.78108 850.85622,712.2301 752.27683,315.94094 Z" transform="matrix(0.98552031,0,0,0.98552031,9.6365207,14.613819)" style="fill:#f2f2f2;fill-opacity:1;fill-rule:evenodd;stroke:#f2f2f2;stroke-width:25.13800049;stroke-linecap:butt;stroke-linejoin:round;stroke-miterlimit:4;stroke-dasharray:none;stroke-opacity:1;filter:url(#filter4443)"/><path style="fill:#f2f2f2;fill-opacity:1;fill-rule:evenodd;stroke:#f2f2f2;stroke-width:25.13800049;stroke-linecap:butt;stroke-linejoin:round;stroke-miterlimit:4;stroke-dasharray:none;stroke-opacity:1;filter:url(#filter4443)" id="path4469" d="M 164.74366,398.74763 217.97653,812.78108 850.85622,712.2301 752.27683,315.94094 Z" transform="matrix(0.99146912,0,0,0.99146912,6.6157129,3.2087563)"/><g style="filter:url(#filter4443)" id="g4439"><path style="fill:#b04738;fill-opacity:1;fill-rule:evenodd;stroke:#f2f2f2;stroke-width:23.53950691;stroke-linecap:butt;stroke-linejoin:round;stroke-miterlimit:4;stroke-dasharray:none;stroke-opacity:1" id="path4237" d="M 326.78811,161.14887 208.07015,538.24419 791.90319,658.74612 864.60222,282.1711 Z"/><path style="fill:#ffd42a;fill-opacity:1;fill-rule:evenodd;stroke:none;stroke-width:1px;stroke-linecap:butt;stroke-linejoin:miter;stroke-opacity:1" id="path4437" d="m 325.49019,277.85235 60.78432,-54.90196 117.64706,-3.92156 50.98039,68.62745 -17.64706,86.27451 -221.56863,-49.01961 z"/></g><g style="filter:url(#filter4443)" id="g4402"><path id="path4235" d="m 252.04304,257.93128 -48.19183,396.4626 609.21077,25.69138 2.06069,-388.46695 z" style="fill:#2bc1ef;fill-opacity:1;fill-rule:evenodd;stroke:none;stroke-width:23.95257378;stroke-linecap:butt;stroke-linejoin:round;stroke-miterlimit:4;stroke-dasharray:none;stroke-opacity:1"/><path style="fill:#f8e690;fill-opacity:1;fill-rule:evenodd;stroke:none;stroke-width:1px;stroke-linecap:butt;stroke-linejoin:miter;stroke-opacity:1" id="path4154-5" d="m 227.36074,453.33814 196.42441,-160.51884 88.5124,176.77031 104.98072,-79.52192 74.95261,88.84851 115.62449,-0.57409 -4.13289,193.12897 -591.63657,-21.95721 z" clip-path="none"/><ellipse style="opacity:1;fill:#f95;fill-opacity:1;stroke:none;stroke-width:20;stroke-linecap:round;stroke-linejoin:miter;stroke-miterlimit:4;stroke-dasharray:none;stroke-opacity:1" id="path4156-0" cx="397.59" cy="276.392" rx="28.925" ry="31.777" transform="matrix(0.98846759,0.15143255,-0.30381003,0.95273263,0,0)"/><path style="fill:none;fill-rule:evenodd;stroke:#f2f2f2;stroke-width:23.95257378;stroke-linecap:butt;stroke-linejoin:round;stroke-miterlimit:4;stroke-dasharray:none;stroke-opacity:1" id="path4400" d="m 252.04304,257.93128 -48.19183,396.4626 609.21077,25.69138 2.06069,-388.46695 z"/></g><g style="filter:url(#filter4443)" id="g4428"><path style="fill:#80d1ff;fill-opacity:1;fill-rule:evenodd;stroke:none;stroke-width:25.1377449;stroke-linecap:butt;stroke-linejoin:round;stroke-miterlimit:4;stroke-dasharray:none;stroke-opacity:1" id="path4231" d="M 166.74366,386.74763 219.97653,800.78108 852.85622,700.2301 754.27683,303.94094 Z"/><path style="fill:#007400;fill-opacity:1;fill-rule:evenodd;stroke:none;stroke-width:1px;stroke-linecap:butt;stroke-linejoin:miter;stroke-opacity:1" id="path4161" d="m 302.97628,616.46962 30.72906,-96.4684 10.63209,-14.70302 1.58578,-10.88058 276.89349,-47.60165 4.77118,12.85759 28.46864,21.36244 51.7451,65.83883 z"/><path style="fill:#050;fill-opacity:1;fill-rule:evenodd;stroke:none;stroke-width:.90312654px;stroke-linecap:butt;stroke-linejoin:miter;stroke-opacity:1" id="path4163" d="m 606.06481,564.42275 89.86724,-67.34199 14.83415,-16.96705 21.22296,7.64538 53.05384,45.89496 z"/><path style="fill:#050;fill-opacity:1;fill-rule:evenodd;stroke:none;stroke-width:1.1066457px;stroke-linecap:butt;stroke-linejoin:miter;stroke-opacity:1" id="path4159" d="m 225.94436,629.70318 43.79846,-117.25092 21.87316,-3.76029 77.87352,96.33392 z"/><path style="opacity:1;fill:#0638c0;fill-opacity:1;stroke:none;stroke-width:12;stroke-linecap:round;stroke-linejoin:miter;stroke-miterlimit:4;stroke-dasharray:none;stroke-opacity:1" id="rect4165" d="m 74.994202,639.66089 619.359948,6.13139 6.55728,191.07098 -645.13484,-6.5854 z" transform="matrix(0.9855426,-0.16942779,0.19368534,0.9810637,0,0)"/><ellipse style="opacity:1;fill:#ff0;fill-opacity:1;stroke:none;stroke-width:12;stroke-linecap:round;stroke-linejoin:miter;stroke-miterlimit:4;stroke-dasharray:none;stroke-opacity:1" id="path4169" cx="597.433" cy="502.416" rx="33.786" ry="34.925" transform="matrix(0.9855426,-0.16942779,0.19368534,0.9810637,0,0)"/><path id="path4261" d="M 166.74366,386.74763 219.97653,800.78108 852.85622,700.2301 754.27683,303.94094 Z" style="fill:none;fill-rule:evenodd;stroke:#f2f2f2;stroke-width:25.1377449;stroke-linecap:butt;stroke-linejoin:round;stroke-miterlimit:4;stroke-dasharray:none;stroke-opacity:1"/></g></g><text style="font-style:normal;font-variant:normal;font-weight:400;font-stretch:normal;font-size:361.19555664px;line-height:125%;font-family:Roboto;-inkscape-font-specification:Roboto;letter-spacing:0;word-spacing:0;fill:#fff;fill-opacity:1;stroke:none;stroke-width:1px;stroke-linecap:butt;stroke-linejoin:miter;stroke-opacity:1;filter:url(#filter4443)" id="text4500" x="99.972" y="789.896" transform="matrix(1.0557207,-0.16562785,0.11835052,0.97665988,34.091311,14.4795)" xml:space="preserve"><tspan id="tspan4502" x="99.972" y="789.896" style="font-style:normal;font-variant:normal;font-weight:700;font-stretch:normal;font-family:Roboto;-inkscape-font-specification:'Roboto Bold'">UIL</tspan></text></g></svg>