<svg xmlns="http://www.w3.org/2000/svg" xmlns:svg="http://www.w3.org/2000/svg" xmlns:xlink="http://www.w3.org/1999/xlink" id="svg2" width="1024" height="1024" version="1.1" viewBox="0 0 1024 1024"><defs id="defs4"><linearGradient id="linearGradient3338"><stop style="stop-color:#cfa;stop-opacity:1" id="stop3340" offset="0"/><stop style="stop-color:#191817;stop-opacity:1" id="stop3342" offset="1"/></linearGradient><linearGradient id="linearGradient3344" x1="478.812" x2="478.812" y1="-64.867" y2="1167.52" gradientUnits="userSpaceOnUse" xlink:href="#linearGradient3338"/><filter style="color-interpolation-filters:sRGB" id="filter4157"><feTurbulence id="feTurbulence4159" baseFrequency="1" numOctaves="3" result="result0" seed="0" type="fractalNoise"/><feColorMatrix id="feColorMatrix4161" result="result4" type="saturate" values="0"/><feComposite id="feComposite4163" in="SourceGraphic" in2="result4" k1=".5" k2=".25" k3=".25" operator="arithmetic" result="result2"/><feBlend id="feBlend4165" in="result2" in2="SourceGraphic" mode="normal" result="result5"/><feComposite id="feComposite4167" in="result5" in2="SourceGraphic" operator="in" result="result3"/></filter><clipPath id="clipPath4158" clipPathUnits="userSpaceOnUse"><rect style="fill:#ff9a00;fill-opacity:1;stroke:none;stroke-width:9;stroke-linecap:round;stroke-linejoin:round;stroke-miterlimit:4;stroke-dasharray:none;stroke-opacity:1" id="rect4160" width="941.044" height="549.396" x="38.077" y="412.307"/></clipPath><clipPath id="clipPath4158-7" clipPathUnits="userSpaceOnUse"><rect id="rect4160-6" width="941.044" height="549.396" x="38.077" y="412.307" style="fill:#ff9a00;fill-opacity:1;stroke:none;stroke-width:9;stroke-linecap:round;stroke-linejoin:round;stroke-miterlimit:4;stroke-dasharray:none;stroke-opacity:1"/></clipPath><clipPath id="clipPath4195" clipPathUnits="userSpaceOnUse"><rect id="rect4197" width="745.172" height="540.999" x="139.414" y="178.035" rx="200" ry="200" style="opacity:1;fill:none;fill-opacity:1;stroke:#000;stroke-width:17.38746834;stroke-linecap:round;stroke-linejoin:miter;stroke-miterlimit:4;stroke-dasharray:none;stroke-opacity:1"/></clipPath><filter style="color-interpolation-filters:sRGB" id="filter4443"><feFlood id="feFlood4445" flood-color="#000" flood-opacity=".498" result="flood"/><feComposite id="feComposite4447" in="flood" in2="SourceGraphic" operator="in" result="composite1"/><feGaussianBlur id="feGaussianBlur4449" in="composite1" result="blur" stdDeviation="3"/><feOffset id="feOffset4451" dx="6" dy="6" result="offset"/><feComposite id="feComposite4453" in="SourceGraphic" in2="offset" operator="over" result="composite2"/></filter></defs><metadata id="metadata7"/><g id="layer1" transform="translate(0,-28.362161)"><rect style="fill:url(#linearGradient3344);fill-rule:evenodd;stroke:none;stroke-width:1px;stroke-linecap:butt;stroke-linejoin:miter;stroke-opacity:1;fill-opacity:1;filter:url(#filter4157)" id="rect3336" width="1100" height="1100" x="-38" y="-9.638"/><rect style="fill:#d45500;fill-opacity:1;stroke:none;filter:url(#filter4443)" id="rect3021" width="668.879" height="470.079" x="177.56" y="215.323"/><text style="font-size:40px;font-style:normal;font-weight:400;line-height:100%;letter-spacing:0;word-spacing:0;fill:#fff;fill-opacity:1;stroke:none;filter:url(#filter4443);font-family:Sans" id="text3029" x="514.161" y="937.209" xml:space="preserve"><tspan id="tspan3041" x="514.161" y="937.209" style="font-size:150px;text-align:center;line-height:100%;text-anchor:middle;fill:#fff">Animations</tspan></text><text style="font-size:40px;font-style:normal;font-weight:400;text-align:center;line-height:125%;letter-spacing:0;word-spacing:0;text-anchor:middle;fill:#fca;fill-opacity:1;stroke:none;filter:url(#filter4443);font-family:Sans" id="text3043" x="504.456" y="412.642" xml:space="preserve"><tspan style="font-size:150px;text-align:center;text-anchor:middle;fill:#fca" id="tspan3040" x="504.456" y="412.642">Recycler</tspan><tspan style="font-size:150px;text-align:center;text-anchor:middle;fill:#fca" id="tspan3044" x="504.456" y="600.142">View</tspan></text><path style="fill:#a40;stroke:none;filter:url(#filter4443)" id="path3067" d="m 112.45281,203.71854 c -1.19095,-38.51227 28.10782,-53.00791 59.73182,-54.17406 -28.55709,12.87955 -46.08888,29.21141 -59.73182,54.17406 z"/><path id="path3113" d="m 139.63978,220.76433 c -1.19095,-38.51227 16.02472,-43.51405 47.64872,-44.6802 -32.30382,10.38174 -37.15274,17.61958 -47.64872,44.6802 z" style="fill:#a40;stroke:none;filter:url(#filter4443)"/><path id="path3156" d="m 162.78334,763.81235 c -38.41429,-2.99262 -49.64707,-33.6906 -47.37682,-65.25455 9.70666,29.78542 24.04093,48.98495 47.37682,65.25455 z" style="fill:#a40;stroke:none;filter:url(#filter4443)"/><path style="fill:#a40;stroke:none;filter:url(#filter4443)" id="path3158" d="m 182.67695,738.63429 c -38.41429,-2.99262 -41.51959,-20.64918 -39.24933,-52.21313 6.81726,33.23916 13.48656,38.84441 39.24933,52.21313 z"/><path id="path3172" d="m 909.09256,711.95935 c -0.229,38.53 -30.04203,51.93616 -61.68752,51.9362 29.0123,-11.8185 47.13399,-27.49323 61.68752,-51.9362 z" style="fill:#a40;stroke:none;filter:url(#filter4443)"/><path style="fill:#a40;stroke:none;filter:url(#filter4443)" id="path3174" d="m 882.55218,693.92332 c -0.22901,38.53 -17.6173,42.894 -49.26279,42.89404 32.66444,-9.18432 37.77677,-16.23857 49.26279,-42.89404 z"/><path style="fill:#a40;stroke:none;filter:url(#filter4443)" id="path3176" d="m 881.83551,153.99307 c 36.03475,13.64221 38.21075,46.25825 27.18247,75.9199 -0.96693,-31.31222 -9.34368,-53.76045 -27.18247,-75.9199 z"/><path id="path3178" d="m 855.68092,172.58415 c 36.03475,13.64221 34.06544,31.46126 23.03713,61.12292 2.77488,-33.81741 -2.0555,-41.06763 -23.03713,-61.12292 z" style="fill:#a40;stroke:none;filter:url(#filter4443)"/></g></svg>